<mxfile host="app.diagrams.net" agent="Mozilla/5.0 (Windows NT 10.0; Win64; x64) AppleWebKit/537.36 (KHTML, like Gecko) Chrome/133.0.0.0 Safari/537.36" version="26.0.16">
  <diagram name="Page-1" id="e7e014a7-5840-1c2e-5031-d8a46d1fe8dd">
    <mxGraphModel dx="2646" dy="724" grid="1" gridSize="10" guides="1" tooltips="1" connect="1" arrows="1" fold="1" page="1" pageScale="1" pageWidth="1169" pageHeight="826" background="none" math="0" shadow="0">
      <root>
        <mxCell id="0" />
        <mxCell id="1" parent="0" />
        <mxCell id="QC3dzs9ZD0hJ02sEl_62-1" style="edgeStyle=orthogonalEdgeStyle;rounded=0;orthogonalLoop=1;jettySize=auto;html=1;exitX=0.5;exitY=1;exitDx=0;exitDy=0;endArrow=classic;endFill=1;entryX=0.5;entryY=0;entryDx=0;entryDy=0;" edge="1" parent="1" target="QC3dzs9ZD0hJ02sEl_62-7">
          <mxGeometry relative="1" as="geometry">
            <mxPoint x="229.20000000000005" y="574.6" as="targetPoint" />
            <mxPoint x="230" y="521" as="sourcePoint" />
          </mxGeometry>
        </mxCell>
        <mxCell id="QC3dzs9ZD0hJ02sEl_62-2" value="是否新增行程?" style="edgeLabel;html=1;align=center;verticalAlign=middle;resizable=0;points=[];" vertex="1" connectable="0" parent="QC3dzs9ZD0hJ02sEl_62-1">
          <mxGeometry x="-0.3248" y="3" relative="1" as="geometry">
            <mxPoint as="offset" />
          </mxGeometry>
        </mxCell>
        <mxCell id="QC3dzs9ZD0hJ02sEl_62-3" style="edgeStyle=orthogonalEdgeStyle;rounded=0;orthogonalLoop=1;jettySize=auto;html=1;entryX=0.5;entryY=0;entryDx=0;entryDy=0;" edge="1" parent="1" target="QC3dzs9ZD0hJ02sEl_62-44">
          <mxGeometry relative="1" as="geometry">
            <mxPoint x="230.0526315789475" y="181" as="sourcePoint" />
          </mxGeometry>
        </mxCell>
        <mxCell id="QC3dzs9ZD0hJ02sEl_62-4" style="rounded=0;orthogonalLoop=1;jettySize=auto;html=1;exitX=0.5;exitY=1;exitDx=0;exitDy=0;" edge="1" parent="1" source="QC3dzs9ZD0hJ02sEl_62-7">
          <mxGeometry relative="1" as="geometry">
            <mxPoint x="230" y="640" as="targetPoint" />
          </mxGeometry>
        </mxCell>
        <mxCell id="QC3dzs9ZD0hJ02sEl_62-5" style="edgeStyle=orthogonalEdgeStyle;rounded=0;orthogonalLoop=1;jettySize=auto;html=1;exitX=1;exitY=0.5;exitDx=0;exitDy=0;entryX=1;entryY=0.5;entryDx=0;entryDy=0;" edge="1" parent="1" source="QC3dzs9ZD0hJ02sEl_62-7" target="QC3dzs9ZD0hJ02sEl_62-28">
          <mxGeometry relative="1" as="geometry">
            <mxPoint x="290" y="1281.5" as="targetPoint" />
            <Array as="points">
              <mxPoint x="420" y="581" />
              <mxPoint x="420" y="1370" />
              <mxPoint x="290" y="1370" />
            </Array>
          </mxGeometry>
        </mxCell>
        <mxCell id="QC3dzs9ZD0hJ02sEl_62-6" value="否" style="edgeLabel;html=1;align=center;verticalAlign=middle;resizable=0;points=[];" vertex="1" connectable="0" parent="QC3dzs9ZD0hJ02sEl_62-5">
          <mxGeometry x="-0.0565" y="-1" relative="1" as="geometry">
            <mxPoint x="-69" y="-307" as="offset" />
          </mxGeometry>
        </mxCell>
        <mxCell id="QC3dzs9ZD0hJ02sEl_62-7" value="" style="rhombus;aspect=fixed;" vertex="1" parent="1">
          <mxGeometry x="220" y="571" width="20" height="20" as="geometry" />
        </mxCell>
        <mxCell id="QC3dzs9ZD0hJ02sEl_62-8" style="edgeStyle=orthogonalEdgeStyle;rounded=0;orthogonalLoop=1;jettySize=auto;html=1;exitX=0.5;exitY=1;exitDx=0;exitDy=0;" edge="1" parent="1" source="QC3dzs9ZD0hJ02sEl_62-30">
          <mxGeometry relative="1" as="geometry">
            <mxPoint x="230" y="790" as="targetPoint" />
            <mxPoint x="230" y="743" as="sourcePoint" />
          </mxGeometry>
        </mxCell>
        <mxCell id="QC3dzs9ZD0hJ02sEl_62-9" value="是否生成推薦排程?" style="edgeLabel;html=1;align=center;verticalAlign=middle;resizable=0;points=[];" vertex="1" connectable="0" parent="QC3dzs9ZD0hJ02sEl_62-8">
          <mxGeometry x="-0.0121" y="-2" relative="1" as="geometry">
            <mxPoint x="52" y="90" as="offset" />
          </mxGeometry>
        </mxCell>
        <mxCell id="QC3dzs9ZD0hJ02sEl_62-10" style="edgeStyle=orthogonalEdgeStyle;rounded=0;orthogonalLoop=1;jettySize=auto;html=1;entryX=1;entryY=0.5;entryDx=0;entryDy=0;exitX=1;exitY=0.5;exitDx=0;exitDy=0;" edge="1" parent="1" source="QC3dzs9ZD0hJ02sEl_62-30" target="QC3dzs9ZD0hJ02sEl_62-24">
          <mxGeometry relative="1" as="geometry">
            <Array as="points">
              <mxPoint x="400" y="742" />
              <mxPoint x="400" y="1090" />
            </Array>
          </mxGeometry>
        </mxCell>
        <mxCell id="QC3dzs9ZD0hJ02sEl_62-11" value="建立行程" style="html=1;dashed=0;rounded=1;absoluteArcSize=1;arcSize=20;verticalAlign=middle;align=center;whiteSpace=wrap;" vertex="1" parent="1">
          <mxGeometry x="170" y="642" width="120" height="50" as="geometry" />
        </mxCell>
        <mxCell id="QC3dzs9ZD0hJ02sEl_62-12" value="查看推薦排程" style="html=1;dashed=0;rounded=1;absoluteArcSize=1;arcSize=20;verticalAlign=middle;align=center;whiteSpace=wrap;" vertex="1" parent="1">
          <mxGeometry x="170" y="925" width="120" height="50" as="geometry" />
        </mxCell>
        <mxCell id="QC3dzs9ZD0hJ02sEl_62-13" style="rounded=0;orthogonalLoop=1;jettySize=auto;html=1;exitX=0.5;exitY=1;exitDx=0;exitDy=0;entryX=0.5;entryY=0;entryDx=0;entryDy=0;" edge="1" parent="1" source="QC3dzs9ZD0hJ02sEl_62-16" target="QC3dzs9ZD0hJ02sEl_62-12">
          <mxGeometry relative="1" as="geometry">
            <mxPoint x="230" y="935" as="targetPoint" />
          </mxGeometry>
        </mxCell>
        <mxCell id="QC3dzs9ZD0hJ02sEl_62-14" style="edgeStyle=orthogonalEdgeStyle;rounded=0;orthogonalLoop=1;jettySize=auto;html=1;exitX=1;exitY=0.5;exitDx=0;exitDy=0;entryX=1;entryY=0.5;entryDx=0;entryDy=0;" edge="1" parent="1" source="QC3dzs9ZD0hJ02sEl_62-16" target="QC3dzs9ZD0hJ02sEl_62-26">
          <mxGeometry relative="1" as="geometry">
            <mxPoint x="290" y="885" as="targetPoint" />
            <Array as="points">
              <mxPoint x="350" y="885" />
              <mxPoint x="350" y="1257" />
            </Array>
          </mxGeometry>
        </mxCell>
        <mxCell id="QC3dzs9ZD0hJ02sEl_62-15" value="否" style="edgeLabel;html=1;align=center;verticalAlign=middle;resizable=0;points=[];" vertex="1" connectable="0" parent="QC3dzs9ZD0hJ02sEl_62-14">
          <mxGeometry x="-0.0565" y="-1" relative="1" as="geometry">
            <mxPoint x="-39" y="-101" as="offset" />
          </mxGeometry>
        </mxCell>
        <mxCell id="QC3dzs9ZD0hJ02sEl_62-16" value="" style="rhombus;aspect=fixed;" vertex="1" parent="1">
          <mxGeometry x="220" y="875" width="20" height="20" as="geometry" />
        </mxCell>
        <mxCell id="QC3dzs9ZD0hJ02sEl_62-17" style="edgeStyle=orthogonalEdgeStyle;rounded=0;orthogonalLoop=1;jettySize=auto;html=1;entryX=0.5;entryY=0;entryDx=0;entryDy=0;exitX=0.5;exitY=1;exitDx=0;exitDy=0;" edge="1" parent="1" source="QC3dzs9ZD0hJ02sEl_62-12" target="QC3dzs9ZD0hJ02sEl_62-22">
          <mxGeometry relative="1" as="geometry">
            <mxPoint x="230" y="1015" as="targetPoint" />
            <mxPoint x="360" y="995" as="sourcePoint" />
          </mxGeometry>
        </mxCell>
        <mxCell id="QC3dzs9ZD0hJ02sEl_62-18" value="是否接受推薦排程?" style="edgeLabel;html=1;align=center;verticalAlign=middle;resizable=0;points=[];" vertex="1" connectable="0" parent="QC3dzs9ZD0hJ02sEl_62-17">
          <mxGeometry x="-0.0121" y="-2" relative="1" as="geometry">
            <mxPoint x="-2" y="-1" as="offset" />
          </mxGeometry>
        </mxCell>
        <mxCell id="QC3dzs9ZD0hJ02sEl_62-19" style="rounded=0;orthogonalLoop=1;jettySize=auto;html=1;exitX=0.5;exitY=1;exitDx=0;exitDy=0;entryX=0.5;entryY=0;entryDx=0;entryDy=0;" edge="1" parent="1" source="QC3dzs9ZD0hJ02sEl_62-22" target="QC3dzs9ZD0hJ02sEl_62-24">
          <mxGeometry relative="1" as="geometry">
            <mxPoint x="230" y="1065" as="targetPoint" />
          </mxGeometry>
        </mxCell>
        <mxCell id="QC3dzs9ZD0hJ02sEl_62-20" style="edgeStyle=orthogonalEdgeStyle;rounded=0;orthogonalLoop=1;jettySize=auto;html=1;exitX=0;exitY=0.5;exitDx=0;exitDy=0;entryX=0;entryY=0.5;entryDx=0;entryDy=0;" edge="1" parent="1" source="QC3dzs9ZD0hJ02sEl_62-22" target="QC3dzs9ZD0hJ02sEl_62-16">
          <mxGeometry relative="1" as="geometry">
            <mxPoint x="290" y="1025" as="targetPoint" />
            <Array as="points">
              <mxPoint x="140" y="1025" />
              <mxPoint x="140" y="885" />
            </Array>
          </mxGeometry>
        </mxCell>
        <mxCell id="QC3dzs9ZD0hJ02sEl_62-21" value="否" style="edgeLabel;html=1;align=center;verticalAlign=middle;resizable=0;points=[];" vertex="1" connectable="0" parent="QC3dzs9ZD0hJ02sEl_62-20">
          <mxGeometry x="-0.0565" y="-1" relative="1" as="geometry">
            <mxPoint as="offset" />
          </mxGeometry>
        </mxCell>
        <mxCell id="QC3dzs9ZD0hJ02sEl_62-22" value="" style="rhombus;aspect=fixed;" vertex="1" parent="1">
          <mxGeometry x="220" y="1015" width="20" height="20" as="geometry" />
        </mxCell>
        <mxCell id="QC3dzs9ZD0hJ02sEl_62-23" value="" style="edgeStyle=orthogonalEdgeStyle;rounded=0;orthogonalLoop=1;jettySize=auto;html=1;entryX=0.5;entryY=0;entryDx=0;entryDy=0;" edge="1" parent="1" source="QC3dzs9ZD0hJ02sEl_62-24" target="QC3dzs9ZD0hJ02sEl_62-35">
          <mxGeometry relative="1" as="geometry">
            <mxPoint x="230" y="1145" as="targetPoint" />
          </mxGeometry>
        </mxCell>
        <mxCell id="QC3dzs9ZD0hJ02sEl_62-24" value="維護日程" style="html=1;dashed=0;rounded=1;absoluteArcSize=1;arcSize=20;verticalAlign=middle;align=center;whiteSpace=wrap;" vertex="1" parent="1">
          <mxGeometry x="170" y="1065" width="120" height="50" as="geometry" />
        </mxCell>
        <mxCell id="QC3dzs9ZD0hJ02sEl_62-25" value="" style="edgeStyle=orthogonalEdgeStyle;rounded=0;orthogonalLoop=1;jettySize=auto;html=1;" edge="1" parent="1" source="QC3dzs9ZD0hJ02sEl_62-26" target="QC3dzs9ZD0hJ02sEl_62-28">
          <mxGeometry relative="1" as="geometry" />
        </mxCell>
        <mxCell id="QC3dzs9ZD0hJ02sEl_62-26" value="執行動態排程" style="whiteSpace=wrap;html=1;dashed=0;rounded=1;arcSize=20;" vertex="1" parent="1">
          <mxGeometry x="170" y="1230" width="120" height="54" as="geometry" />
        </mxCell>
        <mxCell id="QC3dzs9ZD0hJ02sEl_62-27" value="" style="edgeStyle=orthogonalEdgeStyle;rounded=0;orthogonalLoop=1;jettySize=auto;html=1;" edge="1" parent="1" source="QC3dzs9ZD0hJ02sEl_62-28" target="QC3dzs9ZD0hJ02sEl_62-29">
          <mxGeometry relative="1" as="geometry" />
        </mxCell>
        <mxCell id="QC3dzs9ZD0hJ02sEl_62-28" value="使用者回饋" style="whiteSpace=wrap;html=1;dashed=0;rounded=1;arcSize=20;" vertex="1" parent="1">
          <mxGeometry x="170" y="1348" width="120" height="60" as="geometry" />
        </mxCell>
        <mxCell id="QC3dzs9ZD0hJ02sEl_62-29" value="" style="ellipse;html=1;shape=endState;fillColor=strokeColor;" vertex="1" parent="1">
          <mxGeometry x="215" y="1458" width="30" height="30" as="geometry" />
        </mxCell>
        <mxCell id="QC3dzs9ZD0hJ02sEl_62-30" value="" style="rhombus;aspect=fixed;" vertex="1" parent="1">
          <mxGeometry x="220" y="732" width="20" height="20" as="geometry" />
        </mxCell>
        <mxCell id="QC3dzs9ZD0hJ02sEl_62-31" style="edgeStyle=orthogonalEdgeStyle;rounded=0;orthogonalLoop=1;jettySize=auto;html=1;entryX=0.524;entryY=0.253;entryDx=0;entryDy=0;entryPerimeter=0;" edge="1" parent="1" source="QC3dzs9ZD0hJ02sEl_62-11" target="QC3dzs9ZD0hJ02sEl_62-30">
          <mxGeometry relative="1" as="geometry" />
        </mxCell>
        <mxCell id="QC3dzs9ZD0hJ02sEl_62-32" value="是否行程衝突?" style="edgeLabel;html=1;align=center;verticalAlign=middle;resizable=0;points=[];" vertex="1" connectable="0" parent="1">
          <mxGeometry x="230" y="712.0028571428571" as="geometry" />
        </mxCell>
        <mxCell id="QC3dzs9ZD0hJ02sEl_62-33" value="是" style="edgeLabel;html=1;align=center;verticalAlign=middle;resizable=0;points=[];" vertex="1" connectable="0" parent="1">
          <mxGeometry x="330" y="495" as="geometry">
            <mxPoint x="2" y="260" as="offset" />
          </mxGeometry>
        </mxCell>
        <mxCell id="QC3dzs9ZD0hJ02sEl_62-34" style="edgeStyle=orthogonalEdgeStyle;rounded=0;orthogonalLoop=1;jettySize=auto;html=1;" edge="1" parent="1" source="QC3dzs9ZD0hJ02sEl_62-35" target="QC3dzs9ZD0hJ02sEl_62-26">
          <mxGeometry relative="1" as="geometry" />
        </mxCell>
        <mxCell id="QC3dzs9ZD0hJ02sEl_62-35" value="" style="rhombus;aspect=fixed;" vertex="1" parent="1">
          <mxGeometry x="220" y="1155" width="20" height="20" as="geometry" />
        </mxCell>
        <mxCell id="QC3dzs9ZD0hJ02sEl_62-36" value="是否建立其他排程?" style="edgeLabel;html=1;align=center;verticalAlign=middle;resizable=0;points=[];" vertex="1" connectable="0" parent="1">
          <mxGeometry x="230" y="1135" as="geometry" />
        </mxCell>
        <mxCell id="QC3dzs9ZD0hJ02sEl_62-37" style="edgeStyle=orthogonalEdgeStyle;rounded=0;orthogonalLoop=1;jettySize=auto;html=1;entryX=0;entryY=0.4;entryDx=0;entryDy=0;entryPerimeter=0;exitX=0;exitY=0.5;exitDx=0;exitDy=0;" edge="1" parent="1" source="QC3dzs9ZD0hJ02sEl_62-35" target="QC3dzs9ZD0hJ02sEl_62-11">
          <mxGeometry relative="1" as="geometry">
            <Array as="points">
              <mxPoint x="110" y="1165" />
              <mxPoint x="110" y="662" />
            </Array>
          </mxGeometry>
        </mxCell>
        <mxCell id="QC3dzs9ZD0hJ02sEl_62-38" value="是" style="edgeLabel;html=1;align=center;verticalAlign=middle;resizable=0;points=[];" vertex="1" connectable="0" parent="1">
          <mxGeometry x="151" y="973.3333333333333" as="geometry">
            <mxPoint x="26" y="189" as="offset" />
          </mxGeometry>
        </mxCell>
        <mxCell id="QC3dzs9ZD0hJ02sEl_62-39" value="" style="edgeStyle=orthogonalEdgeStyle;rounded=0;orthogonalLoop=1;jettySize=auto;html=1;" edge="1" parent="1" source="QC3dzs9ZD0hJ02sEl_62-40" target="QC3dzs9ZD0hJ02sEl_62-52">
          <mxGeometry relative="1" as="geometry" />
        </mxCell>
        <mxCell id="QC3dzs9ZD0hJ02sEl_62-40" value="登入" style="html=1;dashed=0;rounded=1;absoluteArcSize=1;arcSize=20;verticalAlign=middle;align=center;whiteSpace=wrap;" vertex="1" parent="1">
          <mxGeometry x="170" y="280" width="120" height="50" as="geometry" />
        </mxCell>
        <mxCell id="QC3dzs9ZD0hJ02sEl_62-41" style="edgeStyle=orthogonalEdgeStyle;rounded=0;orthogonalLoop=1;jettySize=auto;html=1;entryX=1.016;entryY=0.641;entryDx=0;entryDy=0;entryPerimeter=0;" edge="1" parent="1" target="QC3dzs9ZD0hJ02sEl_62-53">
          <mxGeometry relative="1" as="geometry">
            <mxPoint x="240" y="223" as="sourcePoint" />
            <mxPoint x="480" y="510" as="targetPoint" />
            <Array as="points">
              <mxPoint x="330" y="223" />
              <mxPoint x="330" y="502" />
            </Array>
          </mxGeometry>
        </mxCell>
        <mxCell id="QC3dzs9ZD0hJ02sEl_62-42" value="" style="edgeStyle=orthogonalEdgeStyle;rounded=0;orthogonalLoop=1;jettySize=auto;html=1;" edge="1" parent="1" source="QC3dzs9ZD0hJ02sEl_62-44">
          <mxGeometry relative="1" as="geometry">
            <mxPoint x="230" y="280" as="targetPoint" />
          </mxGeometry>
        </mxCell>
        <mxCell id="QC3dzs9ZD0hJ02sEl_62-43" value="是" style="edgeLabel;html=1;align=center;verticalAlign=middle;resizable=0;points=[];" vertex="1" connectable="0" parent="QC3dzs9ZD0hJ02sEl_62-42">
          <mxGeometry x="0.0106" y="5" relative="1" as="geometry">
            <mxPoint y="-1" as="offset" />
          </mxGeometry>
        </mxCell>
        <mxCell id="QC3dzs9ZD0hJ02sEl_62-44" value="" style="rhombus;aspect=fixed;" vertex="1" parent="1">
          <mxGeometry x="220" y="214" width="20" height="20" as="geometry" />
        </mxCell>
        <mxCell id="QC3dzs9ZD0hJ02sEl_62-45" value="是否要登入" style="text;html=1;align=center;verticalAlign=middle;resizable=0;points=[];autosize=1;strokeColor=none;fillColor=none;" vertex="1" parent="1">
          <mxGeometry x="220" y="187.5" width="80" height="30" as="geometry" />
        </mxCell>
        <mxCell id="QC3dzs9ZD0hJ02sEl_62-46" value="" style="edgeStyle=orthogonalEdgeStyle;rounded=0;orthogonalLoop=1;jettySize=auto;html=1;" edge="1" parent="1" source="QC3dzs9ZD0hJ02sEl_62-47" target="QC3dzs9ZD0hJ02sEl_62-55">
          <mxGeometry relative="1" as="geometry" />
        </mxCell>
        <mxCell id="QC3dzs9ZD0hJ02sEl_62-47" value="註冊" style="html=1;dashed=0;rounded=1;absoluteArcSize=1;arcSize=20;verticalAlign=middle;align=center;whiteSpace=wrap;" vertex="1" parent="1">
          <mxGeometry x="-38" y="375" width="120" height="50" as="geometry" />
        </mxCell>
        <mxCell id="QC3dzs9ZD0hJ02sEl_62-48" value="是否已註冊" style="text;html=1;align=center;verticalAlign=middle;resizable=0;points=[];autosize=1;strokeColor=none;fillColor=none;" vertex="1" parent="1">
          <mxGeometry x="220" y="330" width="80" height="30" as="geometry" />
        </mxCell>
        <mxCell id="QC3dzs9ZD0hJ02sEl_62-49" value="" style="edgeStyle=orthogonalEdgeStyle;rounded=0;orthogonalLoop=1;jettySize=auto;html=1;" edge="1" parent="1" source="QC3dzs9ZD0hJ02sEl_62-52" target="QC3dzs9ZD0hJ02sEl_62-53">
          <mxGeometry relative="1" as="geometry" />
        </mxCell>
        <mxCell id="QC3dzs9ZD0hJ02sEl_62-50" value="是" style="edgeLabel;html=1;align=center;verticalAlign=middle;resizable=0;points=[];" vertex="1" connectable="0" parent="QC3dzs9ZD0hJ02sEl_62-49">
          <mxGeometry x="0.0048" y="6" relative="1" as="geometry">
            <mxPoint as="offset" />
          </mxGeometry>
        </mxCell>
        <mxCell id="QC3dzs9ZD0hJ02sEl_62-51" value="" style="edgeStyle=orthogonalEdgeStyle;rounded=0;orthogonalLoop=1;jettySize=auto;html=1;" edge="1" parent="1" source="QC3dzs9ZD0hJ02sEl_62-52" target="QC3dzs9ZD0hJ02sEl_62-47">
          <mxGeometry relative="1" as="geometry" />
        </mxCell>
        <mxCell id="QC3dzs9ZD0hJ02sEl_62-52" value="" style="rhombus;aspect=fixed;" vertex="1" parent="1">
          <mxGeometry x="220" y="390" width="20" height="20" as="geometry" />
        </mxCell>
        <mxCell id="QC3dzs9ZD0hJ02sEl_62-53" value="進入單日日程表" style="html=1;dashed=0;rounded=1;absoluteArcSize=1;arcSize=20;verticalAlign=middle;align=center;whiteSpace=wrap;" vertex="1" parent="1">
          <mxGeometry x="170" y="470" width="120" height="50" as="geometry" />
        </mxCell>
        <mxCell id="QC3dzs9ZD0hJ02sEl_62-54" value="" style="edgeStyle=orthogonalEdgeStyle;rounded=0;orthogonalLoop=1;jettySize=auto;html=1;" edge="1" parent="1" source="QC3dzs9ZD0hJ02sEl_62-55" target="QC3dzs9ZD0hJ02sEl_62-40">
          <mxGeometry relative="1" as="geometry" />
        </mxCell>
        <mxCell id="QC3dzs9ZD0hJ02sEl_62-55" value="填寫個性化問卷" style="whiteSpace=wrap;html=1;dashed=0;rounded=1;arcSize=20;" vertex="1" parent="1">
          <mxGeometry x="-38" y="280" width="120" height="50" as="geometry" />
        </mxCell>
        <mxCell id="QC3dzs9ZD0hJ02sEl_62-56" value="否" style="text;html=1;align=center;verticalAlign=middle;resizable=0;points=[];autosize=1;strokeColor=none;fillColor=none;" vertex="1" parent="1">
          <mxGeometry x="320" y="238" width="40" height="30" as="geometry" />
        </mxCell>
        <mxCell id="QC3dzs9ZD0hJ02sEl_62-57" value="否" style="text;html=1;align=center;verticalAlign=middle;resizable=0;points=[];autosize=1;strokeColor=none;fillColor=none;" vertex="1" parent="1">
          <mxGeometry x="120" y="368" width="40" height="30" as="geometry" />
        </mxCell>
        <mxCell id="QC3dzs9ZD0hJ02sEl_62-58" value="" style="ellipse;fillColor=strokeColor;html=1;" vertex="1" parent="1">
          <mxGeometry x="210" y="41" width="40" height="40" as="geometry" />
        </mxCell>
        <mxCell id="QC3dzs9ZD0hJ02sEl_62-59" style="edgeStyle=orthogonalEdgeStyle;rounded=0;orthogonalLoop=1;jettySize=auto;html=1;exitX=0.5;exitY=1;exitDx=0;exitDy=0;endArrow=classic;endFill=1;" edge="1" parent="1" target="QC3dzs9ZD0hJ02sEl_62-60">
          <mxGeometry relative="1" as="geometry">
            <mxPoint x="230" y="191" as="targetPoint" />
            <mxPoint x="230" y="81" as="sourcePoint" />
          </mxGeometry>
        </mxCell>
        <mxCell id="QC3dzs9ZD0hJ02sEl_62-60" value="點擊日程表" style="html=1;dashed=0;rounded=1;absoluteArcSize=1;arcSize=20;verticalAlign=middle;align=center;whiteSpace=wrap;" vertex="1" parent="1">
          <mxGeometry x="170" y="131" width="120" height="50" as="geometry" />
        </mxCell>
        <mxCell id="QC3dzs9ZD0hJ02sEl_62-61" value="" style="edgeStyle=orthogonalEdgeStyle;rounded=0;orthogonalLoop=1;jettySize=auto;html=1;" edge="1" parent="1" source="QC3dzs9ZD0hJ02sEl_62-62" target="QC3dzs9ZD0hJ02sEl_62-16">
          <mxGeometry relative="1" as="geometry" />
        </mxCell>
        <mxCell id="QC3dzs9ZD0hJ02sEl_62-62" value="預覽建立日程" style="html=1;dashed=0;rounded=1;absoluteArcSize=1;arcSize=20;verticalAlign=middle;align=center;whiteSpace=wrap;" vertex="1" parent="1">
          <mxGeometry x="170" y="790" width="120" height="50" as="geometry" />
        </mxCell>
        <mxCell id="QC3dzs9ZD0hJ02sEl_62-63" value="否" style="text;html=1;align=center;verticalAlign=middle;resizable=0;points=[];autosize=1;strokeColor=none;fillColor=none;" vertex="1" parent="1">
          <mxGeometry x="230" y="758" width="40" height="30" as="geometry" />
        </mxCell>
        <mxCell id="QC3dzs9ZD0hJ02sEl_62-64" value="使用者角度" style="text;html=1;align=center;verticalAlign=middle;resizable=0;points=[];autosize=1;strokeColor=none;fillColor=none;" vertex="1" parent="1">
          <mxGeometry x="250" y="46" width="80" height="30" as="geometry" />
        </mxCell>
        <mxCell id="QC3dzs9ZD0hJ02sEl_62-65" value="否" style="text;html=1;align=center;verticalAlign=middle;resizable=0;points=[];autosize=1;strokeColor=none;fillColor=none;" vertex="1" parent="1">
          <mxGeometry x="220" y="1188" width="40" height="30" as="geometry" />
        </mxCell>
      </root>
    </mxGraphModel>
  </diagram>
</mxfile>
